<?xml version="1.0" standalone="no"?>
<!DOCTYPE svg PUBLIC "-//W3C//DTD SVG 20010904//EN"
 "http://www.w3.org/TR/2001/REC-SVG-20010904/DTD/svg10.dtd">
<svg version="1.0" xmlns="http://www.w3.org/2000/svg"
 width="535.000000pt" height="466.000000pt" viewBox="0 0 535.000000 466.000000"
 preserveAspectRatio="xMidYMid meet">

<g transform="translate(0.000000,466.000000) scale(0.100000,-0.100000)"
fill="#000000" stroke="none">
<path d="M2507 3700 c-366 -58 -660 -226 -881 -505 -31 -38 -56 -80 -56 -93 0
-28 55 -138 117 -234 51 -81 43 -82 102 21 127 224 351 399 611 477 89 27 106
29 275 29 160 0 189 -3 260 -23 439 -129 736 -493 762 -932 10 -179 -19 -333
-91 -486 -57 -119 -113 -202 -198 -290 -38 -40 -65 -75 -60 -78 20 -12 215
-55 281 -62 l69 -6 56 78 c305 430 336 980 81 1434 -187 334 -509 568 -895
650 -117 25 -335 35 -433 20z"/>
<path d="M1355 3686 c-113 -27 -208 -99 -249 -186 -18 -39 -21 -64 -21 -175 1
-120 3 -137 33 -225 41 -118 116 -268 194 -384 36 -54 57 -95 53 -105 -16 -51
-24 -234 -15 -336 30 -315 149 -589 350 -802 190 -200 388 -317 664 -391 95
-25 113 -27 311 -26 202 0 214 2 320 31 61 17 144 43 186 59 l77 28 118 -36
c195 -60 305 -80 439 -82 186 -1 299 36 380 126 58 65 80 134 79 248 -1 98
-20 179 -70 303 -36 89 -138 282 -153 292 -5 2 -16 -23 -25 -56 -16 -55 -16
-64 -2 -107 58 -177 34 -325 -63 -399 -59 -46 -127 -63 -244 -63 -438 0 -1152
390 -1700 929 -494 486 -698 946 -502 1135 60 58 118 77 255 83 99 5 121 9
158 31 24 13 41 29 39 35 -4 14 -108 43 -241 67 -124 23 -292 25 -371 6z m459
-1562 c278 -269 580 -499 899 -684 59 -34 107 -66 107 -70 0 -13 -143 -23
-217 -16 -164 17 -254 42 -388 109 -245 122 -434 346 -518 614 -28 86 -44 183
-32 183 4 0 71 -61 149 -136z"/>
</g>
</svg>
